<svg width="37" height="16" viewBox="0 0 37 16" fill="none" xmlns="http://www.w3.org/2000/svg">
<rect width="37" height="16" rx="6" fill="#CF3E3B"/>
<path d="M6.57 8.465H9.16V9.495H6.57V8.465ZM12.0605 7.395C12.2205 7.36167 12.3738 7.33833 12.5205 7.325C12.6671 7.30833 12.8088 7.3 12.9455 7.3C13.3255 7.3 13.6605 7.35667 13.9505 7.47C14.2405 7.58333 14.4838 7.74 14.6805 7.94C14.8771 8.14 15.0255 8.375 15.1255 8.645C15.2255 8.91167 15.2755 9.2 15.2755 9.51C15.2755 9.89333 15.2071 10.2433 15.0705 10.56C14.9371 10.8767 14.7505 11.1483 14.5105 11.375C14.2705 11.5983 13.9855 11.7717 13.6555 11.895C13.3288 12.0183 12.9721 12.08 12.5855 12.08C12.3588 12.08 12.1438 12.0567 11.9405 12.01C11.7371 11.9633 11.5455 11.9017 11.3655 11.825C11.1888 11.745 11.0238 11.655 10.8705 11.555C10.7205 11.4517 10.5855 11.3433 10.4655 11.23L10.8455 10.705C10.9255 10.5917 11.0305 10.535 11.1605 10.535C11.2438 10.535 11.3288 10.5617 11.4155 10.615C11.5021 10.6683 11.6005 10.7267 11.7105 10.79C11.8238 10.8533 11.9555 10.9117 12.1055 10.965C12.2588 11.0183 12.4421 11.045 12.6555 11.045C12.8821 11.045 13.0821 11.0083 13.2555 10.935C13.4288 10.8617 13.5721 10.76 13.6855 10.63C13.8021 10.4967 13.8888 10.34 13.9455 10.16C14.0055 9.97667 14.0355 9.77833 14.0355 9.565C14.0355 9.17167 13.9205 8.865 13.6905 8.645C13.4638 8.42167 13.1271 8.31 12.6805 8.31C12.3371 8.31 11.9855 8.37333 11.6255 8.5L10.8555 8.28L11.4555 4.77H15.0255V5.295C15.0255 5.47167 14.9705 5.615 14.8605 5.725C14.7505 5.835 14.5638 5.89 14.3005 5.89H12.3155L12.0605 7.395ZM21.6813 8.385C21.6813 9.015 21.6129 9.56333 21.4763 10.03C21.3429 10.4933 21.1563 10.8767 20.9163 11.18C20.6796 11.4833 20.3979 11.71 20.0713 11.86C19.7479 12.0067 19.3979 12.08 19.0213 12.08C18.6446 12.08 18.2946 12.0067 17.9713 11.86C17.6513 11.71 17.3729 11.4833 17.1363 11.18C16.8996 10.8767 16.7146 10.4933 16.5813 10.03C16.4479 9.56333 16.3813 9.015 16.3813 8.385C16.3813 7.75167 16.4479 7.20333 16.5813 6.74C16.7146 6.27667 16.8996 5.89333 17.1363 5.59C17.3729 5.28667 17.6513 5.06167 17.9713 4.915C18.2946 4.765 18.6446 4.69 19.0213 4.69C19.3979 4.69 19.7479 4.765 20.0713 4.915C20.3979 5.06167 20.6796 5.28667 20.9163 5.59C21.1563 5.89333 21.3429 6.27667 21.4763 6.74C21.6129 7.20333 21.6813 7.75167 21.6813 8.385ZM20.4063 8.385C20.4063 7.86167 20.3679 7.42833 20.2913 7.085C20.2146 6.74167 20.1113 6.46833 19.9813 6.265C19.8546 6.06167 19.7079 5.92 19.5413 5.84C19.3746 5.75667 19.2013 5.715 19.0213 5.715C18.8446 5.715 18.6729 5.75667 18.5063 5.84C18.3429 5.92 18.1979 6.06167 18.0713 6.265C17.9446 6.46833 17.8429 6.74167 17.7663 7.085C17.6929 7.42833 17.6563 7.86167 17.6563 8.385C17.6563 8.90833 17.6929 9.34167 17.7663 9.685C17.8429 10.0283 17.9446 10.3017 18.0713 10.505C18.1979 10.7083 18.3429 10.8517 18.5063 10.935C18.6729 11.015 18.8446 11.055 19.0213 11.055C19.2013 11.055 19.3746 11.015 19.5413 10.935C19.7079 10.8517 19.8546 10.7083 19.9813 10.505C20.1113 10.3017 20.2146 10.0283 20.2913 9.685C20.3679 9.34167 20.4063 8.90833 20.4063 8.385ZM25.957 6.52C25.957 6.79333 25.9104 7.04 25.817 7.26C25.727 7.48 25.6054 7.66833 25.452 7.825C25.2987 7.97833 25.1204 8.09667 24.917 8.18C24.7137 8.26333 24.502 8.305 24.282 8.305C24.042 8.305 23.8204 8.26333 23.617 8.18C23.4137 8.09667 23.237 7.97833 23.087 7.825C22.9404 7.66833 22.8254 7.48 22.742 7.26C22.6587 7.04 22.617 6.79333 22.617 6.52C22.617 6.24 22.6587 5.98667 22.742 5.76C22.8254 5.53333 22.9404 5.34167 23.087 5.185C23.237 5.02833 23.4137 4.90833 23.617 4.825C23.8204 4.73833 24.042 4.695 24.282 4.695C24.522 4.695 24.7437 4.73833 24.947 4.825C25.1537 4.90833 25.332 5.02833 25.482 5.185C25.632 5.34167 25.7487 5.53333 25.832 5.76C25.9154 5.98667 25.957 6.24 25.957 6.52ZM25.007 6.52C25.007 6.32667 24.987 6.165 24.947 6.035C24.9104 5.905 24.8587 5.8 24.792 5.72C24.7287 5.64 24.652 5.58333 24.562 5.55C24.4754 5.51333 24.382 5.495 24.282 5.495C24.182 5.495 24.0887 5.51333 24.002 5.55C23.9154 5.58333 23.8404 5.64 23.777 5.72C23.717 5.8 23.6687 5.905 23.632 6.035C23.5954 6.165 23.577 6.32667 23.577 6.52C23.577 6.70667 23.5954 6.86333 23.632 6.99C23.6687 7.11333 23.717 7.21333 23.777 7.29C23.8404 7.36667 23.9154 7.42167 24.002 7.455C24.0887 7.48833 24.182 7.505 24.282 7.505C24.382 7.505 24.4754 7.48833 24.562 7.455C24.652 7.42167 24.7287 7.36667 24.792 7.29C24.8587 7.21333 24.9104 7.11333 24.947 6.99C24.987 6.86333 25.007 6.70667 25.007 6.52ZM28.362 4.965C28.4054 4.915 28.4554 4.87 28.512 4.83C28.572 4.79 28.6554 4.77 28.762 4.77H29.662L24.292 11.815C24.2487 11.8683 24.197 11.9133 24.137 11.95C24.077 11.9833 24.0037 12 23.917 12H22.997L28.362 4.965ZM30.042 10.3C30.042 10.5733 29.9954 10.82 29.902 11.04C29.812 11.26 29.6904 11.4483 29.537 11.605C29.3837 11.7583 29.2054 11.8783 29.002 11.965C28.7987 12.0483 28.587 12.09 28.367 12.09C28.127 12.09 27.9054 12.0483 27.702 11.965C27.4987 11.8783 27.322 11.7583 27.172 11.605C27.0254 11.4483 26.9104 11.26 26.827 11.04C26.7437 10.82 26.702 10.5733 26.702 10.3C26.702 10.02 26.7437 9.76667 26.827 9.54C26.9104 9.31333 27.0254 9.12167 27.172 8.965C27.322 8.80833 27.4987 8.68833 27.702 8.605C27.9054 8.51833 28.127 8.475 28.367 8.475C28.607 8.475 28.8287 8.51833 29.032 8.605C29.2387 8.68833 29.4154 8.80833 29.562 8.965C29.712 9.12167 29.8287 9.31333 29.912 9.54C29.9987 9.76667 30.042 10.02 30.042 10.3ZM29.087 10.3C29.087 10.1067 29.0687 9.945 29.032 9.815C28.9954 9.685 28.9437 9.58 28.877 9.5C28.8137 9.42 28.737 9.36333 28.647 9.33C28.5604 9.29333 28.467 9.275 28.367 9.275C28.267 9.275 28.1737 9.29333 28.087 9.33C28.0004 9.36333 27.9254 9.42 27.862 9.5C27.7987 9.58 27.7487 9.685 27.712 9.815C27.6787 9.945 27.662 10.1067 27.662 10.3C27.662 10.4867 27.6787 10.6433 27.712 10.77C27.7487 10.8967 27.7987 10.9983 27.862 11.075C27.9254 11.1517 28.0004 11.2067 28.087 11.24C28.1737 11.2733 28.267 11.29 28.367 11.29C28.467 11.29 28.5604 11.2733 28.647 11.24C28.737 11.2067 28.8137 11.1517 28.877 11.075C28.9437 10.9983 28.9954 10.8967 29.032 10.77C29.0687 10.6433 29.087 10.4867 29.087 10.3Z" fill="white"/>
</svg>
